<svg width="397" height="100" viewBox="0 0 397 100" fill="none" xmlns="http://www.w3.org/2000/svg">
<path d="M50.5332 33.668H59.3008V71.748C59.3008 73.8854 58.4066 76.001 56.6182 78.0947C54.3936 80.6683 51.6455 81.9769 48.374 82.0205H44.252L46.2148 73.6455H48.1123C48.374 73.6455 48.5921 73.6019 48.7666 73.5146C48.9847 73.471 49.1592 73.4056 49.29 73.3184C49.4645 73.2311 49.6172 73.1439 49.748 73.0566C49.8789 72.9694 49.988 72.8604 50.0752 72.7295C50.1624 72.5986 50.2279 72.4678 50.2715 72.3369C50.3587 72.2497 50.4023 72.1624 50.4023 72.0752C50.446 71.988 50.4896 71.9225 50.5332 71.8789V71.748V33.668ZM50.0752 26.4053C50.0752 24.6169 50.8822 23.2646 52.4961 22.3486C53.2376 21.9124 54.0228 21.6943 54.8516 21.6943C56.6836 21.6943 58.0576 22.5013 58.9736 24.1152C59.3662 24.8568 59.5625 25.6201 59.5625 26.4053C59.5625 28.2373 58.7555 29.6113 57.1416 30.5273C56.4001 30.9199 55.6367 31.1162 54.8516 31.1162C52.9759 31.1162 51.5801 30.2874 50.6641 28.6299C50.2715 27.932 50.0752 27.1904 50.0752 26.4053ZM63.9803 59.1201V31.7051H72.8787V58.0732C72.966 59.7308 73.9692 60.5814 75.8885 60.625V69.3271C71.6138 69.3271 68.2769 67.6478 65.8778 64.2891C64.6128 62.5007 63.9803 60.7777 63.9803 59.1201ZM78.8983 69.3271V60.625C80.7739 60.4069 81.799 59.5563 81.9735 58.0732V31.7051H90.8719V59.1201C90.8719 61.1702 89.9123 63.2422 87.993 65.3359C85.5503 67.9531 82.5187 69.2835 78.8983 69.3271ZM93.3268 59.1855L101.44 57.6807C101.44 59.1201 102.182 60.1452 103.665 60.7559C104.188 60.9303 104.668 61.0394 105.104 61.083V69.3271C100.044 69.3271 96.5329 67.5387 94.57 63.9619C93.7412 62.4788 93.3268 60.8867 93.3268 59.1855ZM93.7194 41.9121C93.7194 37.8555 95.6169 34.8457 99.4118 32.8828C101.287 31.8796 103.141 31.3779 104.973 31.3779V39.4912C102.836 39.5348 101.767 40.3418 101.767 41.9121C101.767 43.5697 103.774 45.0309 107.787 46.2959C109.27 46.7757 111.015 47.2337 113.021 47.6699C116.031 48.237 118.168 49.9163 119.433 52.708C120.088 54.1475 120.415 55.7396 120.415 57.4844C120.415 62.0208 118.626 65.3577 115.049 67.4951C112.999 68.7165 110.666 69.3271 108.049 69.3271V61.083C109.575 61.083 110.709 60.5814 111.451 59.5781C111.8 59.0983 111.974 58.5749 111.974 58.0078C111.974 56.6556 110.317 55.4779 107.002 54.4746C106.478 54.3438 105.671 54.1257 104.581 53.8203C102.269 53.2096 100.677 52.708 99.8044 52.3154C96.6201 50.7015 94.7009 48.3242 94.0466 45.1836C93.8285 44.1367 93.7194 43.0462 93.7194 41.9121ZM107.918 39.4912L107.983 31.3779C111.909 31.3779 115.071 32.8174 117.47 35.6963C118.997 37.5719 119.76 39.5566 119.76 41.6504L111.713 43.0244C111.713 41.0615 110.666 39.9056 108.572 39.5566C108.31 39.513 108.092 39.4912 107.918 39.4912ZM121.299 40.1455V31.7051H125.879V22.1523H134.647V31.7051H138.965V40.2109H134.647V57.5498C134.734 59.1201 135.541 59.9271 137.068 59.9707H138.965L140.928 69H137.002C131.288 69 127.799 66.8408 126.534 62.5225C126.098 60.9521 125.879 59.0765 125.879 56.8955V40.1455H121.299ZM157.092 69V41.8467C157.092 39.6657 158.052 37.5501 159.971 35.5C162.414 32.9701 165.402 31.6833 168.935 31.6396V40.3418C167.19 40.6035 166.209 41.4759 165.99 42.959V69H157.092ZM171.945 40.3418V31.6396C174.911 31.6833 177.441 32.4902 179.534 34.0605C181.541 32.4466 184.049 31.6396 187.059 31.6396V40.3418C185.052 40.3854 184.027 41.2578 183.984 42.959V69H175.085V42.959C174.998 41.2578 173.951 40.3854 171.945 40.3418ZM190.003 40.3418V31.6396C194.234 31.6396 197.571 33.319 200.014 36.6777C201.322 38.5098 201.977 40.2327 201.977 41.8467V69H193.078V42.959C192.991 41.2578 191.966 40.3854 190.003 40.3418ZM204.759 60.3633V57.0264C204.802 54.2347 205.98 52.0755 208.292 50.5488C208.859 50.2435 211.149 49.3929 215.162 47.9971C219.829 46.4268 222.163 45.0309 222.163 43.8096V42.3047C222.12 40.7344 221.16 39.8838 219.284 39.7529V31.7051C222.556 31.7051 225.304 32.8174 227.528 35.042C229.535 37.0921 230.538 39.3167 230.538 41.7158V58.793C230.582 60.1016 231.192 60.7995 232.37 60.8867V69C229.709 69 227.572 68.3021 225.958 66.9062C224.257 68.2585 222.054 68.9564 219.35 69V60.9521C219.699 60.9521 220.026 60.9085 220.331 60.8213C221.552 60.4723 222.163 59.6436 222.163 58.335V52.9697C220.985 53.6676 218.695 54.4964 215.293 55.4561C213.897 55.805 213.09 56.0449 212.872 56.1758C212.349 56.4375 212.065 56.9391 212.022 57.6807V58.5967C212.022 58.8584 212.043 59.1201 212.087 59.3818C212.349 60.4287 213.592 60.9521 215.816 60.9521V69C212.894 69 210.408 68.2585 208.357 66.7754C205.958 65.0306 204.759 62.8932 204.759 60.3633ZM205.217 41.0615C205.26 38.8369 206.176 36.8086 207.965 34.9766C210.233 32.7956 212.872 31.7051 215.882 31.7051V39.7529C213.875 39.7965 212.85 41.1924 212.807 43.9404L205.217 41.0615ZM235.152 69V41.8467C235.152 39.6657 236.134 37.5283 238.097 35.4346C240.496 32.9482 243.484 31.6833 247.06 31.6396V40.3418C245.228 40.5599 244.225 41.4105 244.051 42.8936V69H235.152ZM250.07 40.3418V31.6396C254.301 31.6396 257.638 33.319 260.081 36.6777C261.39 38.5098 262.044 40.2327 262.044 41.8467V69H253.145V42.8936C253.145 41.4541 252.338 40.6253 250.724 40.4072C250.506 40.3636 250.288 40.3418 250.07 40.3418ZM264.826 60.3633V57.0264C264.87 54.2347 266.047 52.0755 268.359 50.5488C268.926 50.2435 271.216 49.3929 275.229 47.9971C279.897 46.4268 282.23 45.0309 282.23 43.8096V42.3047C282.187 40.7344 281.227 39.8838 279.351 39.7529V31.7051C282.623 31.7051 285.371 32.8174 287.595 35.042C289.602 37.0921 290.605 39.3167 290.605 41.7158V58.793C290.649 60.1016 291.259 60.7995 292.437 60.8867V69C289.776 69 287.639 68.3021 286.025 66.9062C284.324 68.2585 282.121 68.9564 279.417 69V60.9521C279.766 60.9521 280.093 60.9085 280.398 60.8213C281.62 60.4723 282.23 59.6436 282.23 58.335V52.9697C281.052 53.6676 278.762 54.4964 275.36 55.4561C273.964 55.805 273.157 56.0449 272.939 56.1758C272.416 56.4375 272.132 56.9391 272.089 57.6807V58.5967C272.089 58.8584 272.11 59.1201 272.154 59.3818C272.416 60.4287 273.659 60.9521 275.884 60.9521V69C272.961 69 270.475 68.2585 268.425 66.7754C266.025 65.0306 264.826 62.8932 264.826 60.3633ZM265.284 41.0615C265.328 38.8369 266.244 36.8086 268.032 34.9766C270.3 32.7956 272.939 31.7051 275.949 31.7051V39.7529C273.942 39.7965 272.917 41.1924 272.874 43.9404L265.284 41.0615ZM294.042 81.4316L296.07 73.3838H309.025C310.421 73.3402 311.315 72.7077 311.708 71.4863C311.751 71.3991 311.773 71.3337 311.773 71.29V68.2148C310.857 68.3893 309.876 68.4766 308.829 68.4766V60.3633C310.704 60.276 311.686 59.5563 311.773 58.2041V41.5195C311.773 40.9089 311.38 40.3636 310.595 39.8838C310.072 39.5785 309.483 39.4258 308.829 39.4258V31.2471C309.876 31.2471 310.857 31.3779 311.773 31.6396V31.2471H320.148V71.29C320.148 73.2093 319.297 75.194 317.596 77.2441C315.328 79.9922 312.515 81.388 309.156 81.4316H294.042ZM294.696 58.4004V41.1924C294.739 39.0986 295.677 37.0485 297.509 35.042C299.778 32.5557 302.613 31.2907 306.015 31.2471V39.4258C304.445 39.4258 303.442 39.9928 303.005 41.127C302.962 41.2578 302.94 41.3451 302.94 41.3887V58.335C302.94 59.3382 303.572 59.9707 304.837 60.2324C305.186 60.3197 305.579 60.3633 306.015 60.3633V68.4766C301.915 68.4766 298.731 66.7536 296.462 63.3076C295.285 61.5628 294.696 59.9271 294.696 58.4004ZM324.5 26.4053C324.5 24.6169 325.307 23.2646 326.921 22.3486C327.663 21.9124 328.448 21.6943 329.277 21.6943C331.109 21.6943 332.483 22.5013 333.399 24.1152C333.791 24.8568 333.988 25.6201 333.988 26.4053C333.988 28.2373 333.181 29.6113 331.567 30.5273C330.825 30.9199 330.062 31.1162 329.277 31.1162C327.401 31.1162 326.005 30.2874 325.089 28.6299C324.697 27.932 324.5 27.1904 324.5 26.4053ZM324.958 69V33.668H333.726V69H324.958ZM338.406 69V41.8467C338.406 39.6657 339.387 37.5283 341.35 35.4346C343.749 32.9482 346.737 31.6833 350.314 31.6396V40.3418C348.482 40.5599 347.478 41.4105 347.304 42.8936V69H338.406ZM353.323 40.3418V31.6396C357.555 31.6396 360.892 33.319 363.334 36.6777C364.643 38.5098 365.297 40.2327 365.297 41.8467V69H356.399V42.8936C356.399 41.4541 355.592 40.6253 353.978 40.4072C353.76 40.3636 353.542 40.3418 353.323 40.3418ZM367.752 81.4316L369.78 73.3838H382.735C384.131 73.3402 385.025 72.7077 385.418 71.4863C385.462 71.3991 385.483 71.3337 385.483 71.29V68.2148C384.567 68.3893 383.586 68.4766 382.539 68.4766V60.3633C384.415 60.276 385.396 59.5563 385.483 58.2041V41.5195C385.483 40.9089 385.091 40.3636 384.306 39.8838C383.782 39.5785 383.193 39.4258 382.539 39.4258V31.2471C383.586 31.2471 384.567 31.3779 385.483 31.6396V31.2471H393.858V71.29C393.858 73.2093 393.008 75.194 391.307 77.2441C389.039 79.9922 386.225 81.388 382.866 81.4316H367.752ZM368.406 58.4004V41.1924C368.45 39.0986 369.388 37.0485 371.22 35.042C373.488 32.5557 376.323 31.2907 379.726 31.2471V39.4258C378.155 39.4258 377.152 39.9928 376.716 41.127C376.672 41.2578 376.65 41.3451 376.65 41.3887V58.335C376.65 59.3382 377.283 59.9707 378.548 60.2324C378.897 60.3197 379.289 60.3633 379.726 60.3633V68.4766C375.625 68.4766 372.441 66.7536 370.173 63.3076C368.995 61.5628 368.406 59.9271 368.406 58.4004Z" fill="white"/>
<path fill-rule="evenodd" clip-rule="evenodd" d="M6.59308 68.4383L18.8264 51.3309C18.965 51.1368 19.0801 50.9222 19.1716 50.6934H8.66779L1.26593 61.0445C0.42023 62.2142 0.453189 64.1648 1.33942 65.3948L3.47028 68.3523C4.34735 69.5821 5.74762 69.6207 6.59308 68.4383ZM9.05463 47.6934H19.1431C19.0379 47.4339 18.9047 47.189 18.7435 46.9673L5.9206 29.1702C5.04352 27.9402 3.64337 27.9017 2.79779 29.0843L0.7746 31.9529C-0.0711031 33.1226 -0.0381441 35.0731 0.848086 36.3033L9.05463 47.6934ZM26.6839 50.6934L18.9521 61.5059C18.1066 62.6883 18.1396 64.6387 19.0256 65.856L21.1564 68.8135C22.0428 70.0438 23.4429 70.0823 24.2792 68.8995L36.5125 51.792C36.7443 51.4752 36.9101 51.0984 37.0104 50.6934H26.6839ZM36.5955 47.6934H26.4084L18.5342 36.7645C17.6481 35.5472 17.6153 33.5967 18.4608 32.4141L20.4936 29.5713C21.33 28.3887 22.7302 28.4273 23.6164 29.6573L36.4393 47.4546C36.4947 47.5315 36.5468 47.6111 36.5955 47.6934Z" fill="white"/>
</svg>
