<svg width="465" height="94" viewBox="0 0 465 94" fill="none" xmlns="http://www.w3.org/2000/svg">
<path fill-rule="evenodd" clip-rule="evenodd" d="M435.699 5.59324L437.032 25.325C437.045 25.5175 437.08 25.7107 437.134 25.9015L444.783 19.6109L443.984 7.78138C443.9 6.42676 442.711 5.02977 441.332 4.66572L438.018 3.79047C436.647 3.4211 435.607 4.22942 435.699 5.59324ZM446.409 22.1585L439.061 28.2013C439.266 28.3054 439.48 28.3879 439.699 28.4445L459.642 33.7116C461.013 34.0809 462.053 33.2726 461.961 31.9088L461.717 28.6168C461.633 27.2622 460.444 25.8652 459.065 25.5011L446.409 22.1585ZM431.699 30.3716L430.863 18.0102C430.771 16.6463 429.582 15.2494 428.212 14.8945L424.898 14.0192C423.519 13.6552 422.479 14.4635 422.578 15.822L423.911 35.5538C423.931 35.8935 424.021 36.2365 424.167 36.5653L431.699 30.3716ZM426.399 38.6143L433.805 32.5237L445.945 35.7299C447.315 36.0848 448.504 37.4817 448.596 38.8456L448.818 42.1245C448.917 43.483 447.877 44.2913 446.499 43.9273L426.555 38.6602C426.503 38.6464 426.451 38.631 426.399 38.6143Z" fill="#C0C0C0"/>
<path d="M6.13523 40.8642H17.9435V79.5005C17.9435 82.5592 17.3156 84.9901 16.0599 86.7931C14.8204 88.5962 13.0656 89.8921 10.7957 90.6809C8.52586 91.4698 5.84546 91.8642 2.75455 91.8642C2.33599 91.8642 1.94158 91.8561 1.57131 91.84C1.20105 91.8239 0.798584 91.8078 0.363925 91.7917V82.8329C0.653698 82.8651 0.911273 82.8893 1.13665 82.9054C1.36203 82.9215 1.58741 82.9295 1.81279 82.9295C3.43874 82.9295 4.56563 82.6236 5.19347 82.0119C5.82131 81.4163 6.13523 80.4986 6.13523 79.2591V40.8642ZM12.0273 36.5417C10.3691 36.5417 8.94442 35.9944 7.75313 34.8997C6.56184 33.7889 5.9662 32.4527 5.9662 30.8912C5.9662 29.3457 6.56184 28.0256 7.75313 26.9309C8.94442 25.8201 10.3691 25.2647 12.0273 25.2647C13.7015 25.2647 15.1262 25.8201 16.3014 26.9309C17.4927 28.0256 18.0884 29.3457 18.0884 30.8912C18.0884 32.4527 17.4927 33.7889 16.3014 34.8997C15.1262 35.9944 13.7015 36.5417 12.0273 36.5417ZM44.6298 61.9451V40.8642H56.4139V77.9551H45.1611V71.0488H44.7747C43.9537 73.3187 42.5531 75.1217 40.573 76.4579C38.609 77.778 36.2345 78.438 33.4495 78.438C30.922 78.438 28.7004 77.8585 26.7847 76.6994C24.869 75.5403 23.3798 73.9224 22.3173 71.8457C21.2548 69.7529 20.7155 67.3059 20.6995 64.5048V40.8642H32.5077V62.1866C32.5238 64.1989 33.055 65.7846 34.1014 66.9437C35.1478 68.1028 36.5726 68.6824 38.3756 68.6824C39.5508 68.6824 40.6052 68.4248 41.5389 67.9096C42.4888 67.3784 43.2373 66.6137 43.7847 65.6156C44.3481 64.6014 44.6298 63.3779 44.6298 61.9451ZM91.552 52.1895L80.7097 52.4792C80.597 51.7065 80.2911 51.0223 79.7921 50.4267C79.293 49.8149 78.641 49.34 77.8361 49.002C77.0473 48.6478 76.1297 48.4707 75.0833 48.4707C73.7149 48.4707 72.5478 48.7444 71.5819 49.2917C70.632 49.8391 70.1652 50.5796 70.1813 51.5133C70.1652 52.2377 70.455 52.8656 71.0506 53.3968C71.6623 53.9281 72.749 54.3547 74.3105 54.6767L81.4583 56.0289C85.1609 56.7373 87.9138 57.9125 89.7168 59.5545C91.5359 61.1966 92.4535 63.3699 92.4696 66.0744C92.4535 68.618 91.6969 70.8315 90.1997 72.715C88.7187 74.5985 86.6903 76.0635 84.1145 77.1099C81.5388 78.1402 78.5927 78.6554 75.2765 78.6554C69.9801 78.6554 65.8025 77.5687 62.7438 75.3954C59.7012 73.206 57.9625 70.2761 57.5279 66.6056L69.1912 66.3159C69.4488 67.6681 70.1169 68.6984 71.1955 69.4068C72.2741 70.1151 73.6505 70.4693 75.3247 70.4693C76.838 70.4693 78.0695 70.1876 79.0194 69.6241C79.9692 69.0607 80.4521 68.3121 80.4682 67.3784C80.4521 66.5413 80.0819 65.8732 79.3574 65.3741C78.633 64.859 77.498 64.4565 75.9526 64.1667L69.481 62.9352C65.7622 62.2591 62.9933 61.0114 61.1742 59.1923C59.3551 57.3571 58.4535 55.0228 58.4696 52.1895C58.4535 49.7103 59.1136 47.5933 60.4497 45.8386C61.7859 44.0678 63.6855 42.7155 66.1486 41.7818C68.6117 40.8481 71.5175 40.3812 74.8659 40.3812C79.8887 40.3812 83.8489 41.4357 86.7466 43.5446C89.6444 45.6374 91.2462 48.519 91.552 52.1895ZM114.459 40.8642V49.5573H91.0601V40.8642H114.459ZM95.9621 31.9778H107.77V66.2917C107.77 67.0162 107.883 67.6038 108.108 68.0545C108.35 68.4892 108.696 68.8031 109.147 68.9963C109.598 69.1734 110.137 69.2619 110.765 69.2619C111.215 69.2619 111.69 69.2217 112.189 69.1412C112.705 69.0446 113.091 68.9641 113.348 68.8997L115.135 77.4238C114.572 77.5848 113.775 77.786 112.745 78.0275C111.731 78.269 110.515 78.4219 109.098 78.4863C106.33 78.6151 103.955 78.2931 101.975 77.5204C100.011 76.7316 98.5057 75.5081 97.4593 73.85C96.429 72.1918 95.9299 70.1071 95.9621 67.5957V31.9778ZM125.574 77.9551V40.8642H136.802V47.6738H137.213C137.985 45.42 139.289 43.6412 141.125 42.3372C142.96 41.0332 145.149 40.3812 147.693 40.3812C150.269 40.3812 152.474 41.0413 154.309 42.3613C156.145 43.6814 157.312 45.4522 157.811 47.6738H158.197C158.889 45.4683 160.242 43.7056 162.254 42.3855C164.266 41.0493 166.641 40.3812 169.377 40.3812C172.887 40.3812 175.736 41.5081 177.926 43.7619C180.115 45.9996 181.21 49.0744 181.21 52.9863V77.9551H169.402V55.6909C169.402 53.8395 168.927 52.4309 167.977 51.465C167.027 50.483 165.796 49.992 164.282 49.992C162.656 49.992 161.377 50.5233 160.443 51.5858C159.525 52.6322 159.066 54.0408 159.066 55.8116V77.9551H147.717V55.5701C147.717 53.8476 147.25 52.4873 146.316 51.4892C145.383 50.4911 144.151 49.992 142.622 49.992C141.592 49.992 140.682 50.2415 139.893 50.7406C139.104 51.2235 138.484 51.9158 138.034 52.8173C137.599 53.7188 137.382 54.7813 137.382 56.0048V77.9551H125.574ZM194.223 78.5829C191.856 78.5829 189.755 78.1885 187.92 77.3997C186.101 76.5948 184.66 75.3874 183.598 73.7775C182.551 72.1516 182.028 70.1151 182.028 67.6681C182.028 65.6075 182.39 63.8689 183.115 62.4522C183.839 61.0356 184.837 59.8845 186.109 58.9991C187.381 58.1137 188.846 57.4456 190.504 56.9948C192.162 56.528 193.933 56.2141 195.816 56.0531C197.925 55.8599 199.624 55.6587 200.912 55.4494C202.199 55.224 203.133 54.9101 203.713 54.5076C204.308 54.0891 204.606 53.5015 204.606 52.7448V52.6241C204.606 51.3845 204.18 50.4267 203.326 49.7505C202.473 49.0744 201.322 48.7363 199.873 48.7363C198.312 48.7363 197.056 49.0744 196.106 49.7505C195.156 50.4267 194.553 51.3604 194.295 52.5517L183.404 52.1653C183.726 49.9115 184.555 47.8992 185.892 46.1284C187.244 44.3414 189.095 42.9409 191.446 41.9267C193.812 40.8964 196.653 40.3812 199.97 40.3812C202.336 40.3812 204.518 40.6629 206.514 41.2264C208.51 41.7737 210.249 42.5787 211.73 43.6412C213.211 44.6876 214.354 45.9754 215.159 47.5048C215.98 49.0341 216.39 50.7808 216.39 52.7448V77.9551H205.282V72.7875H204.992C204.332 74.0431 203.487 75.1056 202.457 75.975C201.443 76.8443 200.243 77.4963 198.859 77.9309C197.491 78.3656 195.945 78.5829 194.223 78.5829ZM197.869 70.8556C199.141 70.8556 200.284 70.5981 201.298 70.0829C202.328 69.5678 203.149 68.8594 203.761 67.9579C204.373 67.0403 204.679 65.9778 204.679 64.7704V61.2449C204.341 61.4219 203.93 61.5829 203.447 61.7278C202.98 61.8727 202.465 62.0095 201.902 62.1383C201.338 62.2671 200.759 62.3798 200.163 62.4764C199.567 62.573 198.996 62.6615 198.448 62.742C197.338 62.9191 196.388 63.1928 195.599 63.563C194.826 63.9333 194.231 64.4163 193.812 65.0119C193.41 65.5914 193.208 66.2837 193.208 67.0886C193.208 68.3121 193.643 69.2458 194.512 69.8897C195.398 70.5337 196.517 70.8556 197.869 70.8556ZM230.659 56.8017V77.9551H218.85V40.8642H230.079V47.6738H230.49C231.311 45.4039 232.711 43.6251 234.691 42.3372C236.671 41.0332 239.03 40.3812 241.767 40.3812C244.375 40.3812 246.636 40.9688 248.552 42.144C250.484 43.3031 251.981 44.929 253.044 47.0218C254.122 49.0985 254.653 51.5294 254.637 54.3145V77.9551H242.829V56.6326C242.845 54.572 242.322 52.9622 241.259 51.8031C240.213 50.644 238.756 50.0645 236.889 50.0645C235.649 50.0645 234.554 50.3381 233.605 50.8855C232.671 51.4167 231.946 52.1814 231.431 53.1795C230.932 54.1776 230.675 55.385 230.659 56.8017ZM267.644 78.5829C265.278 78.5829 263.177 78.1885 261.341 77.3997C259.522 76.5948 258.082 75.3874 257.019 73.7775C255.973 72.1516 255.449 70.1151 255.449 67.6681C255.449 65.6075 255.812 63.8689 256.536 62.4522C257.26 61.0356 258.259 59.8845 259.53 58.9991C260.802 58.1137 262.267 57.4456 263.925 56.9948C265.583 56.528 267.354 56.2141 269.238 56.0531C271.347 55.8599 273.045 55.6587 274.333 55.4494C275.621 55.224 276.555 54.9101 277.134 54.5076C277.73 54.0891 278.028 53.5015 278.028 52.7448V52.6241C278.028 51.3845 277.601 50.4267 276.748 49.7505C275.894 49.0744 274.743 48.7363 273.295 48.7363C271.733 48.7363 270.477 49.0744 269.528 49.7505C268.578 50.4267 267.974 51.3604 267.716 52.5517L256.826 52.1653C257.148 49.9115 257.977 47.8992 259.313 46.1284C260.665 44.3414 262.517 42.9409 264.867 41.9267C267.233 40.8964 270.075 40.3812 273.391 40.3812C275.758 40.3812 277.939 40.6629 279.935 41.2264C281.931 41.7737 283.67 42.5787 285.151 43.6412C286.632 44.6876 287.775 45.9754 288.58 47.5048C289.401 49.0341 289.812 50.7808 289.812 52.7448V77.9551H278.704V72.7875H278.414C277.754 74.0431 276.909 75.1056 275.878 75.975C274.864 76.8443 273.665 77.4963 272.28 77.9309C270.912 78.3656 269.367 78.5829 267.644 78.5829ZM271.29 70.8556C272.562 70.8556 273.705 70.5981 274.719 70.0829C275.75 69.5678 276.571 68.8594 277.182 67.9579C277.794 67.0403 278.1 65.9778 278.1 64.7704V61.2449C277.762 61.4219 277.351 61.5829 276.868 61.7278C276.402 61.8727 275.886 62.0095 275.323 62.1383C274.76 62.2671 274.18 62.3798 273.584 62.4764C272.989 62.573 272.417 62.6615 271.87 62.742C270.759 62.9191 269.809 63.1928 269.02 63.563C268.248 63.9333 267.652 64.4163 267.233 65.0119C266.831 65.5914 266.63 66.2837 266.63 67.0886C266.63 68.3121 267.064 69.2458 267.934 69.8897C268.819 70.5337 269.938 70.8556 271.29 70.8556ZM309.562 92.6369C306.036 92.6369 303.018 92.1459 300.506 91.1639C297.995 90.1819 296.023 88.8377 294.59 87.1312C293.157 85.4248 292.296 83.493 292.006 81.3358L303.187 80.7079C303.396 81.4645 303.782 82.1246 304.346 82.688C304.925 83.2515 305.674 83.6861 306.591 83.992C307.525 84.2979 308.62 84.4508 309.875 84.4508C311.856 84.4508 313.49 83.9679 314.777 83.002C316.081 82.0521 316.733 80.3859 316.733 78.0034V71.4835H316.323C315.856 72.6265 315.148 73.6487 314.198 74.5502C313.248 75.4518 312.065 76.1601 310.648 76.6752C309.248 77.1904 307.638 77.448 305.819 77.448C303.114 77.448 300.635 76.8201 298.381 75.5645C296.143 74.2927 294.349 72.3287 292.996 69.6724C291.66 67.0001 290.992 63.563 290.992 59.3613C290.992 55.0308 291.684 51.465 293.069 48.6639C294.453 45.8466 296.264 43.7619 298.502 42.4096C300.756 41.0574 303.179 40.3812 305.77 40.3812C307.718 40.3812 309.384 40.7193 310.769 41.3954C312.17 42.0555 313.321 42.9087 314.222 43.9551C315.124 45.0015 315.808 46.0881 316.275 47.215H316.613V40.8642H328.373V78.1C328.373 81.2392 327.584 83.8874 326.006 86.0446C324.429 88.2018 322.223 89.8358 319.39 90.9466C316.556 92.0734 313.28 92.6369 309.562 92.6369ZM309.924 68.8514C311.357 68.8514 312.58 68.4731 313.594 67.7164C314.608 66.9598 315.389 65.8732 315.937 64.4565C316.484 63.0398 316.758 61.3414 316.758 59.3613C316.758 57.349 316.484 55.6184 315.937 54.1696C315.405 52.7046 314.625 51.5777 313.594 50.7889C312.58 50.0001 311.357 49.6056 309.924 49.6056C308.459 49.6056 307.219 50.0081 306.205 50.813C305.191 51.618 304.418 52.7529 303.887 54.2179C303.372 55.6667 303.114 57.3812 303.114 59.3613C303.114 61.3414 303.38 63.0398 303.911 64.4565C304.442 65.8732 305.207 66.9598 306.205 67.7164C307.219 68.4731 308.459 68.8514 309.924 68.8514ZM331.141 77.9551V40.8642H342.949V77.9551H331.141ZM337.057 36.5417C335.399 36.5417 333.974 35.9944 332.783 34.8997C331.591 33.7889 330.996 32.4527 330.996 30.8912C330.996 29.3457 331.591 28.0256 332.783 26.9309C333.974 25.8201 335.399 25.2647 337.057 25.2647C338.731 25.2647 340.156 25.8201 341.331 26.9309C342.522 28.0256 343.118 29.3457 343.118 30.8912C343.118 32.4527 342.522 33.7889 341.331 34.8997C340.156 35.9944 338.731 36.5417 337.057 36.5417ZM357.513 56.8017V77.9551H345.705V40.8642H356.934V47.6738H357.344C358.165 45.4039 359.566 43.6251 361.546 42.3372C363.526 41.0332 365.884 40.3812 368.621 40.3812C371.229 40.3812 373.491 40.9688 375.407 42.144C377.338 43.3031 378.836 44.929 379.898 47.0218C380.977 49.0985 381.508 51.5294 381.492 54.3145V77.9551H369.684V56.6326C369.7 54.572 369.176 52.9622 368.114 51.8031C367.068 50.644 365.611 50.0645 363.743 50.0645C362.504 50.0645 361.409 50.3381 360.459 50.8855C359.525 51.4167 358.801 52.1814 358.286 53.1795C357.787 54.1776 357.529 55.385 357.513 56.8017ZM401.332 92.6369C397.807 92.6369 394.788 92.1459 392.277 91.1639C389.766 90.1819 387.794 88.8377 386.361 87.1312C384.928 85.4248 384.067 83.493 383.777 81.3358L394.957 80.7079C395.167 81.4645 395.553 82.1246 396.116 82.688C396.696 83.2515 397.445 83.6861 398.362 83.992C399.296 84.2979 400.391 84.4508 401.646 84.4508C403.626 84.4508 405.26 83.9679 406.548 83.002C407.852 82.0521 408.504 80.3859 408.504 78.0034V71.4835H408.094C407.627 72.6265 406.919 73.6487 405.969 74.5502C405.019 75.4518 403.836 76.1601 402.419 76.6752C401.018 77.1904 399.409 77.448 397.589 77.448C394.885 77.448 392.406 76.8201 390.152 75.5645C387.914 74.2927 386.119 72.3287 384.767 69.6724C383.431 67.0001 382.763 63.563 382.763 59.3613C382.763 55.0308 383.455 51.465 384.839 48.6639C386.224 45.8466 388.035 43.7619 390.273 42.4096C392.526 41.0574 394.949 40.3812 397.541 40.3812C399.489 40.3812 401.155 40.7193 402.54 41.3954C403.94 42.0555 405.091 42.9087 405.993 43.9551C406.894 45.0015 407.579 46.0881 408.045 47.215H408.383V40.8642H420.143V78.1C420.143 81.2392 419.355 83.8874 417.777 86.0446C416.199 88.2018 413.994 89.8358 411.16 90.9466C408.327 92.0734 405.051 92.6369 401.332 92.6369ZM401.695 68.8514C403.127 68.8514 404.351 68.4731 405.365 67.7164C406.379 66.9598 407.16 65.8732 407.707 64.4565C408.255 63.0398 408.528 61.3414 408.528 59.3613C408.528 57.349 408.255 55.6184 407.707 54.1696C407.176 52.7046 406.395 51.5777 405.365 50.7889C404.351 50.0001 403.127 49.6056 401.695 49.6056C400.23 49.6056 398.99 50.0081 397.976 50.813C396.962 51.618 396.189 52.7529 395.658 54.2179C395.142 55.6667 394.885 57.3812 394.885 59.3613C394.885 61.3414 395.151 63.0398 395.682 64.4565C396.213 65.8732 396.978 66.9598 397.976 67.7164C398.99 68.4731 400.23 68.8514 401.695 68.8514Z" fill="#C0C0C0"/>
</svg>
