<svg width="485" height="144" viewBox="0 0 485 144" fill="none" xmlns="http://www.w3.org/2000/svg">
<path fill-rule="evenodd" clip-rule="evenodd" d="M445.909 17.0957L447.243 36.8274C447.256 37.0199 447.291 37.2131 447.345 37.4039L454.994 31.1133L454.195 19.2838C454.11 17.9292 452.921 16.5322 451.543 16.1682L448.229 15.2929C446.857 14.9235 445.817 15.7319 445.909 17.0957ZM456.619 33.6609L449.271 39.7037C449.477 39.8079 449.69 39.8903 449.909 39.947L469.852 45.214C471.224 45.5834 472.264 44.7751 472.172 43.4112L471.928 40.1192C471.843 38.7646 470.654 37.3676 469.276 37.0036L456.619 33.6609ZM441.909 41.8741L441.074 29.5126C440.982 28.1488 439.793 26.7518 438.422 26.3969L435.108 25.5217C433.73 25.1576 432.69 25.966 432.789 27.3245L434.122 47.0562C434.141 47.3959 434.231 47.7389 434.378 48.0677L441.909 41.8741ZM436.609 50.1167L444.015 44.0262L456.155 47.2323C457.526 47.5872 458.715 48.9842 458.807 50.348L459.028 53.627C459.127 54.9854 458.087 55.7938 456.709 55.4297L436.766 50.1627C436.713 50.1488 436.661 50.1335 436.609 50.1167Z" fill="#C0C0C0"/>
<path d="M410.494 105.747C406.968 105.747 403.95 105.256 401.438 104.274C398.927 103.292 396.955 101.948 395.522 100.241C394.089 98.535 393.228 96.6032 392.938 94.446L404.119 93.8182C404.328 94.5748 404.714 95.2348 405.278 95.7983C405.857 96.3617 406.606 96.7964 407.523 97.1023C408.457 97.4081 409.552 97.5611 410.808 97.5611C412.788 97.5611 414.422 97.0781 415.71 96.1122C417.014 95.1624 417.666 93.4962 417.666 91.1136V84.5937H417.255C416.788 85.7367 416.08 86.759 415.13 87.6605C414.18 88.562 412.997 89.2703 411.58 89.7855C410.18 90.3006 408.57 90.5582 406.751 90.5582C404.046 90.5582 401.567 89.9304 399.313 88.6747C397.076 87.4029 395.281 85.4389 393.928 82.7826C392.592 80.1103 391.924 76.6733 391.924 72.4716C391.924 68.1411 392.616 64.5753 394.001 61.7741C395.385 58.9569 397.196 56.8721 399.434 55.5199C401.688 54.1676 404.111 53.4915 406.702 53.4915C408.65 53.4915 410.317 53.8295 411.701 54.5057C413.102 55.1657 414.253 56.0189 415.154 57.0653C416.056 58.1117 416.74 59.1984 417.207 60.3253H417.545V53.9744H429.305V91.2102C429.305 94.3494 428.516 96.9976 426.938 99.1548C425.361 101.312 423.155 102.946 420.322 104.057C417.488 105.184 414.212 105.747 410.494 105.747ZM410.856 81.9616C412.289 81.9616 413.512 81.5833 414.526 80.8267C415.541 80.0701 416.321 78.9834 416.869 77.5667C417.416 76.1501 417.69 74.4517 417.69 72.4716C417.69 70.4593 417.416 68.7287 416.869 67.2798C416.337 65.8148 415.557 64.6879 414.526 63.8991C413.512 63.1103 412.289 62.7159 410.856 62.7159C409.391 62.7159 408.151 63.1183 407.137 63.9233C406.123 64.7282 405.35 65.8631 404.819 67.3281C404.304 68.777 404.046 70.4915 404.046 72.4716C404.046 74.4517 404.312 76.1501 404.843 77.5667C405.374 78.9834 406.139 80.0701 407.137 80.8267C408.151 81.5833 409.391 81.9616 410.856 81.9616Z" fill="#C0C0C0"/>
<path d="M366.674 69.9119V91.0653H354.866V53.9744H366.095V60.7841H366.505C367.326 58.5142 368.727 56.7353 370.707 55.4474C372.687 54.1434 375.046 53.4915 377.782 53.4915C380.39 53.4915 382.652 54.079 384.568 55.2542C386.5 56.4133 387.997 58.0393 389.059 60.1321C390.138 62.2088 390.669 64.6397 390.653 67.4247V91.0653H378.845V69.7429C378.861 67.6823 378.338 66.0724 377.275 64.9133C376.229 63.7542 374.772 63.1747 372.905 63.1747C371.665 63.1747 370.57 63.4484 369.62 63.9957C368.687 64.527 367.962 65.2916 367.447 66.2897C366.948 67.2879 366.691 68.4952 366.674 69.9119Z" fill="#C0C0C0"/>
<path d="M340.302 91.0653V53.9744H352.11V91.0653H340.302ZM346.218 49.652C344.56 49.652 343.135 49.1046 341.944 48.0099C340.753 46.8991 340.157 45.563 340.157 44.0014C340.157 42.456 340.753 41.1359 341.944 40.0412C343.135 38.9304 344.56 38.375 346.218 38.375C347.893 38.375 349.317 38.9304 350.492 40.0412C351.684 41.1359 352.279 42.456 352.279 44.0014C352.279 45.563 351.684 46.8991 350.492 48.0099C349.317 49.1046 347.893 49.652 346.218 49.652Z" fill="#C0C0C0"/>
<path d="M318.723 105.747C315.197 105.747 312.179 105.256 309.668 104.274C307.156 103.292 305.184 101.948 303.751 100.241C302.319 98.535 301.457 96.6032 301.168 94.446L312.348 93.8182C312.557 94.5748 312.944 95.2348 313.507 95.7983C314.087 96.3617 314.835 96.7964 315.753 97.1023C316.686 97.4081 317.781 97.5611 319.037 97.5611C321.017 97.5611 322.651 97.0781 323.939 96.1122C325.243 95.1624 325.895 93.4962 325.895 91.1136V84.5937H325.484C325.017 85.7367 324.309 86.759 323.359 87.6605C322.409 88.562 321.226 89.2703 319.81 89.7855C318.409 90.3006 316.799 90.5582 314.98 90.5582C312.275 90.5582 309.796 89.9304 307.543 88.6747C305.305 87.4029 303.51 85.4389 302.158 82.7826C300.821 80.1103 300.153 76.6733 300.153 72.4716C300.153 68.1411 300.846 64.5753 302.23 61.7741C303.614 58.9569 305.426 56.8721 307.663 55.5199C309.917 54.1676 312.34 53.4915 314.932 53.4915C316.88 53.4915 318.546 53.8295 319.93 54.5057C321.331 55.1657 322.482 56.0189 323.383 57.0653C324.285 58.1117 324.969 59.1984 325.436 60.3253H325.774V53.9744H337.534V91.2102C337.534 94.3494 336.745 96.9976 335.168 99.1548C333.59 101.312 331.384 102.946 328.551 104.057C325.718 105.184 322.442 105.747 318.723 105.747ZM319.085 81.9616C320.518 81.9616 321.741 81.5833 322.756 80.8267C323.77 80.0701 324.551 78.9834 325.098 77.5667C325.645 76.1501 325.919 74.4517 325.919 72.4716C325.919 70.4593 325.645 68.7287 325.098 67.2798C324.567 65.8148 323.786 64.6879 322.756 63.8991C321.741 63.1103 320.518 62.7159 319.085 62.7159C317.62 62.7159 316.381 63.1183 315.366 63.9233C314.352 64.7282 313.579 65.8631 313.048 67.3281C312.533 68.777 312.275 70.4915 312.275 72.4716C312.275 74.4517 312.541 76.1501 313.072 77.5667C313.604 78.9834 314.368 80.0701 315.366 80.8267C316.381 81.5833 317.62 81.9616 319.085 81.9616Z" fill="#C0C0C0"/>
<path d="M276.805 91.6932C274.439 91.6932 272.338 91.2987 270.503 90.5099C268.684 89.705 267.243 88.4976 266.18 86.8878C265.134 85.2618 264.611 83.2254 264.611 80.7784C264.611 78.7178 264.973 76.9791 265.697 75.5625C266.422 74.1458 267.42 72.9948 268.692 72.1094C269.964 71.2239 271.429 70.5558 273.087 70.1051C274.745 69.6382 276.516 69.3243 278.399 69.1633C280.508 68.9701 282.206 68.7689 283.494 68.5596C284.782 68.3343 285.716 68.0203 286.296 67.6179C286.891 67.1993 287.189 66.6117 287.189 65.8551V65.7344C287.189 64.4948 286.762 63.5369 285.909 62.8608C285.056 62.1846 283.905 61.8466 282.456 61.8466C280.894 61.8466 279.639 62.1846 278.689 62.8608C277.739 63.5369 277.135 64.4706 276.878 65.6619L265.987 65.2755C266.309 63.0218 267.138 61.0094 268.474 59.2386C269.827 57.4517 271.678 56.0511 274.028 55.0369C276.395 54.0066 279.236 53.4915 282.553 53.4915C284.919 53.4915 287.1 53.7732 289.097 54.3366C291.093 54.884 292.831 55.6889 294.313 56.7514C295.794 57.7978 296.937 59.0857 297.742 60.615C298.563 62.1444 298.973 63.8911 298.973 65.8551V91.0653H287.865V85.8977H287.575C286.915 87.1534 286.07 88.2159 285.04 89.0852C284.026 89.9545 282.826 90.6065 281.442 91.0412C280.073 91.4758 278.528 91.6932 276.805 91.6932ZM280.452 83.9659C281.724 83.9659 282.867 83.7083 283.881 83.1932C284.911 82.678 285.732 81.9697 286.344 81.0682C286.956 80.1505 287.261 79.088 287.261 77.8807V74.3551C286.923 74.5322 286.513 74.6932 286.03 74.838C285.563 74.9829 285.048 75.1198 284.484 75.2486C283.921 75.3773 283.341 75.49 282.746 75.5866C282.15 75.6832 281.579 75.7718 281.031 75.8522C279.921 76.0293 278.971 76.303 278.182 76.6733C277.409 77.0435 276.813 77.5265 276.395 78.1221C275.992 78.7017 275.791 79.3939 275.791 80.1988C275.791 81.4223 276.226 82.356 277.095 83C277.981 83.6439 279.099 83.9659 280.452 83.9659Z" fill="#C0C0C0"/>
<path d="M239.82 69.9119V91.0653H228.012V53.9744H239.24V60.7841H239.651C240.472 58.5142 241.873 56.7353 243.853 55.4474C245.833 54.1434 248.191 53.4915 250.928 53.4915C253.536 53.4915 255.798 54.079 257.713 55.2542C259.645 56.4133 261.142 58.0393 262.205 60.1321C263.283 62.2088 263.815 64.6397 263.799 67.4247V91.0653H251.99V69.7429C252.007 67.6823 251.483 66.0724 250.421 64.9133C249.374 63.7542 247.917 63.1747 246.05 63.1747C244.81 63.1747 243.716 63.4484 242.766 63.9957C241.832 64.527 241.108 65.2916 240.593 66.2897C240.094 67.2879 239.836 68.4952 239.82 69.9119Z" fill="#C0C0C0"/>
<path d="M203.384 91.6932C201.018 91.6932 198.917 91.2987 197.081 90.5099C195.262 89.705 193.822 88.4976 192.759 86.8878C191.713 85.2618 191.189 83.2254 191.189 80.7784C191.189 78.7178 191.552 76.9791 192.276 75.5625C193.001 74.1458 193.999 72.9948 195.27 72.1094C196.542 71.2239 198.007 70.5558 199.665 70.1051C201.323 69.6382 203.094 69.3243 204.978 69.1633C207.087 68.9701 208.785 68.7689 210.073 68.5596C211.361 68.3343 212.295 68.0203 212.874 67.6179C213.47 67.1993 213.768 66.6117 213.768 65.8551V65.7344C213.768 64.4948 213.341 63.5369 212.488 62.8608C211.635 62.1846 210.483 61.8466 209.035 61.8466C207.473 61.8466 206.217 62.1846 205.268 62.8608C204.318 63.5369 203.714 64.4706 203.456 65.6619L192.566 65.2755C192.888 63.0218 193.717 61.0094 195.053 59.2386C196.405 57.4517 198.257 56.0511 200.607 55.0369C202.974 54.0066 205.815 53.4915 209.131 53.4915C211.498 53.4915 213.679 53.7732 215.675 54.3366C217.671 54.884 219.41 55.6889 220.891 56.7514C222.372 57.7978 223.515 59.0857 224.32 60.615C225.141 62.1444 225.552 63.8911 225.552 65.8551V91.0653H214.444V85.8977H214.154C213.494 87.1534 212.649 88.2159 211.618 89.0852C210.604 89.9545 209.405 90.6065 208.02 91.0412C206.652 91.4758 205.107 91.6932 203.384 91.6932ZM207.03 83.9659C208.302 83.9659 209.445 83.7083 210.459 83.1932C211.49 82.678 212.311 81.9697 212.922 81.0682C213.534 80.1505 213.84 79.088 213.84 77.8807V74.3551C213.502 74.5322 213.091 74.6932 212.608 74.838C212.142 74.9829 211.626 75.1198 211.063 75.2486C210.5 75.3773 209.92 75.49 209.324 75.5866C208.729 75.6832 208.157 75.7718 207.61 75.8522C206.499 76.0293 205.549 76.303 204.76 76.6733C203.988 77.0435 203.392 77.5265 202.974 78.1221C202.571 78.7017 202.37 79.3939 202.37 80.1988C202.37 81.4223 202.805 82.356 203.674 83C204.559 83.6439 205.678 83.9659 207.03 83.9659Z" fill="#C0C0C0"/>
<path d="M134.735 91.0653V53.9744H145.964V60.7841H146.374C147.147 58.5303 148.451 56.7514 150.286 55.4474C152.121 54.1434 154.311 53.4915 156.854 53.4915C159.43 53.4915 161.635 54.1515 163.471 55.4716C165.306 56.7916 166.473 58.5625 166.972 60.7841H167.358C168.051 58.5786 169.403 56.8158 171.415 55.4957C173.428 54.1595 175.802 53.4915 178.539 53.4915C182.048 53.4915 184.898 54.6183 187.087 56.8721C189.277 59.1098 190.371 62.1846 190.371 66.0966V91.0653H178.563V68.8011C178.563 66.9498 178.088 65.5412 177.138 64.5753C176.188 63.5933 174.957 63.1022 173.444 63.1022C171.818 63.1022 170.538 63.6335 169.604 64.696C168.687 65.7424 168.228 67.151 168.228 68.9219V91.0653H156.878V68.6804C156.878 66.9578 156.411 65.5975 155.478 64.5994C154.544 63.6013 153.313 63.1022 151.783 63.1022C150.753 63.1022 149.843 63.3518 149.054 63.8508C148.266 64.3338 147.646 65.026 147.195 65.9275C146.76 66.829 146.543 67.8915 146.543 69.115V91.0653H134.735Z" fill="#C0C0C0"/>
<path d="M123.621 53.9745V62.6677H100.221V53.9745H123.621ZM105.123 45.0881H116.932V79.4021C116.932 80.1265 117.044 80.7141 117.27 81.1648C117.511 81.5995 117.857 81.9134 118.308 82.1066C118.759 82.2837 119.298 82.3722 119.926 82.3722C120.377 82.3722 120.852 82.332 121.351 82.2515C121.866 82.1549 122.252 82.0744 122.51 82.01L124.297 90.5342C123.733 90.6951 122.936 90.8964 121.906 91.1378C120.892 91.3793 119.676 91.5323 118.26 91.5967C115.491 91.7254 113.116 91.4035 111.136 90.6307C109.172 89.8419 107.667 88.6184 106.621 86.9603C105.59 85.3022 105.091 83.2174 105.123 80.706V45.0881Z" fill="#C0C0C0"/>
<path d="M100.713 65.2997L89.871 65.5895C89.7583 64.8167 89.4525 64.1326 88.9534 63.5369C88.4544 62.9252 87.8024 62.4503 86.9974 62.1122C86.2086 61.758 85.291 61.5809 84.2446 61.5809C82.8762 61.5809 81.7091 61.8546 80.7432 62.402C79.7934 62.9493 79.3265 63.6898 79.3426 64.6236C79.3265 65.348 79.6163 65.9758 80.2119 66.5071C80.8237 67.0383 81.9103 67.4649 83.4719 67.7869L90.6196 69.1392C94.3223 69.8475 97.0751 71.0227 98.8781 72.6647C100.697 74.3068 101.615 76.4801 101.631 79.1846C101.615 81.7282 100.858 83.9417 99.3611 85.8253C97.88 87.7088 95.8516 89.1737 93.2759 90.2201C90.7001 91.2505 87.7541 91.7656 84.4378 91.7656C79.1414 91.7656 74.9638 90.679 71.9051 88.5057C68.8625 86.3163 67.1239 83.3863 66.6892 79.7159L78.3526 79.4261C78.6101 80.7784 79.2782 81.8087 80.3568 82.517C81.4354 83.2254 82.8118 83.5795 84.4861 83.5795C85.9993 83.5795 87.2309 83.2978 88.1807 82.7344C89.1305 82.1709 89.6135 81.4223 89.6296 80.4886C89.6135 79.6515 89.2432 78.9834 88.5188 78.4844C87.7943 77.9692 86.6594 77.5667 85.1139 77.277L78.6423 76.0454C74.9236 75.3693 72.1546 74.1217 70.3355 72.3025C68.5164 70.4673 67.6149 68.133 67.631 65.2997C67.6149 62.8205 68.2749 60.7036 69.6111 58.9488C70.9473 57.178 72.8469 55.8257 75.3099 54.892C77.773 53.9583 80.6788 53.4915 84.0273 53.4915C89.05 53.4915 93.0102 54.5459 95.908 56.6548C98.8057 58.7476 100.407 61.6292 100.713 65.2997Z" fill="#C0C0C0"/>
<path d="M53.7912 75.0556V53.9746H65.5753V91.0655H54.3225V84.1593H53.9361C53.1151 86.4292 51.7145 88.2322 49.7344 89.5684C47.7704 90.8884 45.3959 91.5485 42.6108 91.5485C40.0834 91.5485 37.8618 90.9689 35.9461 89.8098C34.0303 88.6507 32.5412 87.0328 31.4787 84.9561C30.4162 82.8633 29.8769 80.4164 29.8608 77.6152V53.9746H41.6691V75.2971C41.6852 77.3094 42.2164 78.8951 43.2628 80.0542C44.3092 81.2132 45.7339 81.7928 47.537 81.7928C48.7122 81.7928 49.7666 81.5352 50.7003 81.0201C51.6501 80.4888 52.3987 79.7241 52.9461 78.726C53.5095 77.7118 53.7912 76.4883 53.7912 75.0556Z" fill="#C0C0C0"/>
<path d="M15.2967 53.9744H27.1049V92.6108C27.1049 95.6695 26.4771 98.1004 25.2214 99.9034C23.9818 101.706 22.2271 103.002 19.9572 103.791C17.6873 104.58 15.0069 104.974 11.916 104.974C11.4975 104.974 11.103 104.966 10.7328 104.95C10.3625 104.934 9.96005 104.918 9.52539 104.902V95.9432C9.81516 95.9754 10.0727 95.9995 10.2981 96.0156C10.5235 96.0317 10.7489 96.0398 10.9743 96.0398C12.6002 96.0398 13.7271 95.7339 14.3549 95.1222C14.9828 94.5265 15.2967 93.6089 15.2967 92.3693V53.9744ZM21.1887 49.652C19.5306 49.652 18.1059 49.1046 16.9146 48.0099C15.7233 46.8991 15.1277 45.563 15.1277 44.0014C15.1277 42.456 15.7233 41.1359 16.9146 40.0412C18.1059 38.9304 19.5306 38.375 21.1887 38.375C22.863 38.375 24.2877 38.9304 25.4629 40.0412C26.6542 41.1359 27.2498 42.456 27.2498 44.0014C27.2498 45.563 26.6542 46.8991 25.4629 48.0099C24.2877 49.1046 22.863 49.652 21.1887 49.652Z" fill="#C0C0C0"/>
</svg>
